<svg xmlns="http://www.w3.org/2000/svg" width="100" height="100" viewBox="0 0 512 512" version="1.1">
	<path d="M 235.938 19.066 C 224.426 20.154, 210.029 23.681, 199.917 27.891 C 170.060 40.320, 133.783 72.576, 120.945 98.109 C 114.131 111.661, 111.710 121.534, 111.653 136 C 111.611 146.762, 112.049 150.325, 114.802 161.629 C 121.525 189.230, 117.367 201.993, 101.650 201.998 C 97.431 202, 96.340 201.540, 93.268 198.468 C 89.767 194.967, 89.740 194.875, 90.234 187.968 C 90.509 184.136, 90.404 181, 90.003 181 C 89.602 181, 87.989 183.813, 86.419 187.250 C 83.925 192.712, 83.517 194.951, 83.185 205 C 82.412 228.411, 90.312 247.994, 107.931 266.339 C 118.461 277.303, 131.007 284.718, 142 286.475 C 145.418 287.021, 147.582 288.241, 151 291.548 C 159.571 299.839, 173.733 303.815, 190.615 302.668 C 200.818 301.975, 202.518 302.436, 204.168 306.345 C 206.337 311.483, 205.970 342.868, 203.652 350.441 C 199.311 364.620, 190.182 373.077, 143 406.626 C 130.625 415.426, 117.112 424.906, 112.971 427.694 C 104.733 433.240, 102.506 435.392, 103.440 436.903 C 103.777 437.448, 107.978 440.916, 112.776 444.610 C 124.886 453.934, 148.015 473.332, 157 481.700 C 163.500 487.753, 165.133 488.770, 169.250 489.323 C 172.349 489.740, 174 489.591, 174 488.894 C 174 483.655, 145.567 452.520, 130.692 441.471 C 121.465 434.616, 120.241 436.966, 141.273 421.159 L 156.045 410.056 165.375 411.456 C 170.507 412.227, 181.859 413.136, 190.603 413.477 C 224.741 414.808, 238.976 418.140, 254 428.317 C 256.475 429.994, 265.202 437.921, 273.394 445.933 C 281.585 453.945, 288.031 459.600, 287.717 458.500 C 287.402 457.400, 285.337 451.484, 283.128 445.353 C 278.514 432.550, 274.332 412.797, 275.365 408.683 C 275.792 406.981, 277.096 405.517, 278.778 404.851 C 281.172 403.903, 282.609 404.352, 290.719 408.584 C 295.789 411.230, 300.217 413.117, 300.557 412.776 C 300.898 412.436, 298.894 409.180, 296.105 405.541 C 290.589 398.344, 287.335 389.642, 288.482 385.155 C 290.170 378.556, 290.068 375.471, 288.058 372.250 C 285.605 368.320, 285.023 368.268, 281.034 371.624 C 279.319 373.068, 277.725 374.058, 277.491 373.825 C 277.258 373.591, 275.933 370.835, 274.546 367.700 C 271.747 361.372, 272.738 360.079, 276.241 365.488 C 278.972 369.704, 279.579 369.814, 280.472 366.256 C 281.498 362.168, 282.875 361, 286.670 361 C 290.036 361, 295 364.780, 295 367.342 C 295 367.919, 296.314 366.320, 297.919 363.789 C 300.552 359.638, 304.318 356.985, 305.666 358.332 C 305.949 358.616, 304.453 362.594, 302.340 367.174 C 298.788 374.876, 298.500 376.174, 298.500 384.500 C 298.500 392.514, 298.844 394.225, 301.638 400.123 C 305.202 407.645, 311.344 415, 314.061 415 C 315.641 415, 315.863 414.227, 315.695 409.315 C 315.516 404.090, 315.719 403.506, 318.204 402.086 C 320.713 400.652, 321.110 400.690, 323.704 402.602 C 325.451 403.890, 327.185 406.697, 328.326 410.082 C 331.958 420.859, 337.992 445.779, 340.048 458.491 C 341.203 465.636, 342.287 471.621, 342.457 471.790 C 342.626 471.959, 345.726 469.856, 349.346 467.117 C 366.243 454.327, 383.781 446.158, 398.966 444.005 C 403.044 443.426, 406.551 442.782, 406.760 442.574 C 407.644 441.690, 402.462 433.337, 398.157 428.706 C 392.086 422.175, 388.844 420.170, 355 402.014 C 323.228 384.969, 319.736 382.728, 315.796 376.862 C 311.832 370.959, 311.412 367.198, 313.896 359.843 C 315.053 356.416, 316 352.556, 316 351.266 C 316 348.156, 312.819 342.083, 309.634 339.110 L 307.072 336.719 313.286 329.985 C 320.754 321.890, 327.370 311.142, 333.947 296.421 L 338.825 285.500 344.163 285.818 C 351.149 286.235, 363.649 283.600, 372.898 279.761 C 388.096 273.452, 403.622 260.307, 411.254 247.285 C 415.639 239.803, 420.098 228.690, 420.792 223.513 L 421.330 219.503 417.480 222.883 C 407.445 231.694, 396.881 232.173, 386.094 224.304 C 383.702 222.559, 383.696 222.563, 384.927 224.863 C 386.807 228.376, 393.130 235.093, 396.500 237.156 C 398.942 238.651, 399.128 238.989, 397.500 238.974 C 394.183 238.944, 387.699 235.454, 384.304 231.872 C 382.546 230.017, 379.871 225.800, 378.360 222.500 C 376.044 217.444, 375.618 215.193, 375.658 208.198 C 375.685 203.346, 376.182 199.418, 376.852 198.748 C 377.716 197.884, 378 198.294, 378 200.405 C 378 207.031, 386.032 218.830, 393.433 223.075 C 404.405 229.368, 416.744 224.783, 419.956 213.219 C 421.154 208.906, 421.215 200.400, 420.069 197.500 C 419.436 195.898, 419.129 196.396, 418.526 200 C 417.161 208.162, 413.291 212.333, 407.083 212.333 C 400.524 212.333, 395.845 206.049, 394.053 194.835 C 392.666 186.150, 393.869 179.664, 400.237 161.506 L 405.500 146.500 405.490 132.500 C 405.479 116.202, 403.808 108.894, 396.622 93.726 C 391.254 82.395, 387.291 76.851, 377.387 66.823 C 359.326 48.534, 335.486 36.901, 315.348 36.551 C 307.389 36.412, 307.095 36.318, 302.976 32.598 C 297.426 27.583, 286.323 22.466, 277 20.627 C 267.097 18.673, 247.840 17.941, 235.938 19.066 M 223.155 45.157 C 219.428 46.589, 218.128 47.528, 218.859 48.259 C 220.005 49.405, 227.128 47.129, 230.587 44.511 C 232.462 43.093, 232.460 43.064, 230.500 43.084 C 229.400 43.095, 226.095 44.028, 223.155 45.157 M 225 50.063 C 221.975 50.503, 216.800 51.725, 213.500 52.779 L 207.500 54.694 211.500 55.841 C 213.700 56.472, 216.465 56.991, 217.645 56.994 C 221.225 57.004, 232.651 53.107, 235.151 51.024 L 237.500 49.067 234 49.164 C 232.075 49.218, 228.025 49.622, 225 50.063 M 234.917 57.402 C 234.688 57.622, 228.200 58.538, 220.500 59.436 C 197.053 62.169, 197.568 61.996, 204.101 64.960 C 209.101 67.229, 212.749 67.466, 218.500 65.898 C 224.789 64.183, 237 58.908, 237 57.907 C 237 56.987, 235.679 56.667, 234.917 57.402 M 186 62.906 C 186 64.211, 192.661 69.332, 198 72.131 C 205.987 76.319, 217.231 74.857, 231.351 67.795 C 234.569 66.186, 237.044 64.720, 236.851 64.538 C 236.658 64.355, 233.125 65.086, 229 66.160 C 223.049 67.711, 218.919 68.051, 209 67.807 C 197.609 67.527, 196.034 67.255, 191.250 64.740 C 188.363 63.223, 186 62.397, 186 62.906 M 187 73.994 C 187 74.540, 188.912 76.398, 191.250 78.122 L 195.500 81.256 191.500 80.680 C 189.300 80.363, 186.375 79.817, 185 79.467 L 182.500 78.830 185 80.918 C 191.057 85.978, 209.225 87.821, 220.560 84.526 C 227.764 82.431, 242.472 75.664, 243.526 73.959 C 244.105 73.021, 243.856 72.841, 242.632 73.311 C 230.107 78.117, 210.311 78.917, 196.333 75.182 C 186.927 72.669, 187 72.678, 187 73.994 M 241.500 83.076 C 239.300 84.130, 233.675 86.231, 229 87.746 C 221.462 90.188, 219.045 90.493, 207.650 90.441 C 193.971 90.378, 193.504 91.290, 206.558 92.575 L 214.500 93.356 210.500 94.601 C 208.300 95.286, 202.900 95.895, 198.500 95.954 C 192.189 96.038, 190.898 96.292, 192.385 97.155 C 193.575 97.847, 197.997 98.073, 204.385 97.769 C 216.270 97.203, 226.904 94.024, 237 88.018 C 247.911 81.527, 250.363 78.834, 241.500 83.076 M 341.876 86.546 C 350.330 94.373, 355.046 105.202, 354.921 116.500 L 354.865 121.500 353.626 117 C 351.623 109.724, 349.253 105.663, 343.830 100.211 C 338.668 95.022, 326.763 88.085, 319.750 86.180 C 313.742 84.548, 315.496 86.200, 324.211 90.382 C 338.167 97.079, 347.645 108.581, 351.468 123.460 C 353.332 130.712, 353.357 136.252, 351.550 141.320 C 350.253 144.957, 350.273 145.063, 351.962 143.534 C 352.938 142.651, 355.255 138.682, 357.111 134.714 C 360.197 128.116, 360.485 126.689, 360.492 118 C 360.499 109.400, 360.200 107.867, 357.335 101.820 C 353.671 94.085, 347.676 87.172, 341.485 83.544 C 339.098 82.145, 336.861 81, 336.515 81 C 336.169 81, 338.581 83.495, 341.876 86.546 M 154.679 84.875 C 152.956 93.439, 154.565 104.334, 158.766 112.551 C 166.718 128.103, 189.769 137.215, 213.254 134.089 C 241.360 130.349, 271.001 114.301, 278.857 98.571 C 280.658 94.965, 283.390 84, 282.488 84 C 282.371 84, 280.790 87.037, 278.976 90.750 C 275.028 98.830, 262.605 111.678, 253.676 116.917 C 245.125 121.934, 230.444 127.163, 223.500 127.665 L 217.500 128.099 226 123.746 C 242.360 115.368, 245.079 112.729, 232.456 117.480 C 210.476 125.754, 185.635 124.338, 171.916 114.029 C 163.225 107.499, 158.400 99.494, 156.547 88.530 C 155.460 82.103, 155.300 81.789, 154.679 84.875 M 267.012 90.127 C 265.127 92.889, 260.520 98.040, 256.774 101.574 C 249.225 108.696, 249.163 110.102, 256.660 104.171 C 262.928 99.213, 267.885 93.520, 269.684 89.215 C 271.800 84.150, 270.875 84.466, 267.012 90.127 M 373.088 97.990 C 377.037 108.382, 376.549 121.879, 371.827 132.910 C 370.746 135.434, 366.706 141.700, 362.849 146.834 C 358.991 151.968, 356.032 156.366, 356.273 156.606 C 356.513 156.846, 359.942 154.051, 363.893 150.393 C 367.844 146.735, 371.247 143.914, 371.456 144.123 C 371.665 144.332, 371.198 146.963, 370.418 149.969 C 368.909 155.788, 368.636 166.210, 369.908 169.464 C 370.468 170.894, 370.836 169.943, 371.266 165.964 C 371.591 162.959, 373.716 154.875, 375.988 148 C 382.665 127.800, 382.533 115.567, 375.472 100.250 C 371.630 91.915, 370.301 90.656, 373.088 97.990 M 227 98.658 C 214.902 103.346, 198.952 105.281, 191.060 103.017 C 186.229 101.632, 185.940 102.651, 190.596 104.649 C 195.867 106.911, 208.692 106.880, 216.448 104.588 C 222.261 102.869, 234 97.450, 234 96.486 C 234 95.890, 234.724 95.665, 227 98.658 M 319.731 98.472 C 326.442 101.920, 333.865 108.612, 336.814 113.872 C 338.949 117.680, 338.742 119.342, 336.423 117.023 C 334.607 115.207, 323.716 112, 319.364 112 C 316.986 112, 313.145 112.758, 310.829 113.685 L 306.617 115.370 315.059 117.155 C 325.967 119.462, 339.698 126.247, 342.491 130.711 C 343.596 132.478, 344.837 133.940, 345.250 133.961 C 347.379 134.071, 345.012 118.989, 341.949 112.932 C 338.362 105.839, 327.042 98.047, 317.937 96.405 C 314.830 95.844, 315.002 96.043, 319.731 98.472 M 174.752 109.536 C 176.015 111.897, 178.660 114.309, 181.723 115.892 C 185.182 117.681, 193.747 119.029, 196.105 118.157 C 197.826 117.520, 197.128 117.123, 192.439 116.074 C 186.188 114.675, 179.932 112.080, 176.094 109.295 C 173.755 107.598, 173.718 107.604, 174.752 109.536 M 137.442 125.979 C 137.822 131.899, 138.655 134.940, 141.437 140.569 C 153.876 165.738, 186.251 171.931, 220.354 155.667 C 232.327 149.957, 237.905 145.469, 226.698 150.562 C 214.938 155.908, 205.472 158, 193.050 158 C 180.679 158, 173.463 156.416, 163.355 151.482 C 150.793 145.350, 141.746 135.329, 138.516 123.967 L 136.961 118.500 137.442 125.979 M 276.565 124.159 C 270.335 134.705, 238.360 161.414, 219.335 171.963 C 215.192 174.261, 213.431 177.526, 205.126 198.307 C 204.921 198.822, 206.197 198.176, 207.963 196.871 C 210.871 194.724, 212.179 194.501, 221.837 194.508 C 230.580 194.514, 234.300 195.033, 242.500 197.391 C 257.143 201.601, 261.912 203.800, 262.633 206.675 C 262.967 208.005, 263.020 209.313, 262.751 209.582 C 261.751 210.582, 246.246 206.707, 236.538 203.030 C 223.713 198.173, 217.852 197.335, 211.955 199.516 C 209.505 200.422, 206.501 201.402, 205.280 201.693 C 203.700 202.069, 202.480 203.774, 201.043 207.614 C 196.455 219.876, 189.131 232.374, 181.747 240.542 C 178.637 243.982, 177.433 246.048, 177.959 247.042 C 178.383 247.844, 179.026 249.850, 179.387 251.500 L 180.044 254.500 177.073 251 C 174.642 248.136, 173.787 247.694, 172.368 248.567 C 168.543 250.920, 168.342 252.804, 171.572 256.034 L 174.623 259.084 177.330 256.955 L 180.038 254.825 181.769 256.920 C 183.388 258.880, 183.687 258.917, 186.399 257.490 C 187.993 256.651, 189.485 256.151, 189.713 256.380 C 189.941 256.608, 191.696 262.073, 193.612 268.525 C 200.103 290.382, 205.701 299.845, 221.431 315.557 C 241.662 335.764, 264.672 348.222, 284.539 349.724 C 295.333 350.541, 298.848 349.609, 300.576 345.473 C 301.359 343.598, 302 341.092, 302 339.904 C 302 338.615, 304.663 334.920, 308.603 330.744 C 316.895 321.953, 321.905 314.204, 330.741 296.500 C 342.100 273.737, 346.256 252.923, 344.522 227.475 L 343.801 216.901 341.436 218.450 C 340.135 219.303, 337.457 220, 335.484 220 C 332.358 220, 331.718 219.568, 330.491 216.633 C 329.439 214.114, 328.288 213.108, 325.917 212.633 C 321.160 211.682, 320.719 211.819, 321.308 214.068 C 321.605 215.206, 321.385 217.465, 320.819 219.089 C 319.031 224.218, 314.133 225.466, 309.645 221.935 C 306.894 219.771, 305.999 219.946, 302.169 223.399 L 299.837 225.500 300.538 222.500 C 301.766 217.244, 304.464 213.603, 309.993 209.738 C 315.767 205.703, 319.194 204.550, 328.272 203.589 L 334.044 202.977 333.369 205.665 L 332.695 208.352 336.236 206.163 C 339.363 204.231, 339.848 204.162, 340.391 205.578 C 341.085 207.385, 340.587 208.518, 337.677 211.750 C 335.025 214.696, 337.009 214.683, 339.778 211.736 C 342.854 208.462, 345.002 202.705, 344.985 197.782 C 344.967 192.872, 344.425 191.787, 341.117 190.043 C 336.484 187.602, 328.520 190.225, 317 197.988 C 307.227 204.573, 301.827 207.227, 300.631 206.031 C 298.178 203.578, 306.338 196.670, 319.496 190.060 C 329.943 184.812, 336.422 183.872, 341.500 186.867 C 343.488 188.040, 345.314 189, 345.557 189 C 346.230 189, 346.060 173.824, 345.357 171.203 C 344.863 169.357, 344.154 168.965, 341.742 169.203 L 338.742 169.500 336.988 160.909 C 334.679 149.596, 332.157 144.151, 326.352 137.945 C 319.037 130.125, 317.802 129.717, 303.965 130.543 C 293.008 131.197, 291.811 131.087, 287.578 129.038 C 285.066 127.822, 282.236 125.516, 281.290 123.913 C 280.343 122.311, 279.313 121, 279 121 C 278.687 121, 277.591 122.422, 276.565 124.159 M 135.182 179.430 C 142.052 185.907, 149.059 189.484, 159.024 191.603 C 170.848 194.116, 184.988 192.103, 194.628 186.532 C 196.208 185.619, 196.600 185.178, 195.500 185.550 C 184.299 189.346, 175.338 190.347, 164.555 189.007 C 153.967 187.691, 143.777 183.732, 136.230 178.001 C 128.899 172.436, 128.435 173.069, 135.182 179.430 M 141 208.648 C 133.362 214.213, 121.641 219.064, 114.418 219.648 C 107.817 220.182, 106.039 219.849, 97.500 216.480 C 93.296 214.822, 101.440 222.068, 106.470 224.461 C 119.462 230.643, 135.022 227.804, 147.250 217.019 C 149.863 214.715, 152 212.458, 152 212.002 C 152 211.547, 149.637 212.477, 146.750 214.070 C 140.813 217.344, 132.529 220.343, 130.914 219.805 C 130.321 219.607, 132.255 217.780, 135.211 215.743 C 140.814 211.885, 147.059 205.964, 145.437 206.049 C 144.922 206.076, 142.925 207.246, 141 208.648 M 222 213.340 C 222 215.530, 221.446 216.003, 218.250 216.542 C 212.561 217.502, 211 218.046, 211 219.067 C 211 219.580, 211.675 220, 212.500 220 C 215.635 220, 213.835 221.894, 210.419 222.190 L 206.838 222.500 209.810 226.591 C 214.339 232.824, 220.383 235.950, 227.066 235.514 C 230.055 235.319, 232.670 235.123, 232.879 235.080 C 233.087 235.036, 231.287 233.204, 228.879 231.009 L 224.500 227.018 226.861 225.009 C 229.936 222.392, 230.651 222.475, 231.419 225.534 C 232.903 231.447, 240.428 230.989, 243.579 224.793 C 244.500 222.982, 245.401 221.334, 245.580 221.130 C 245.760 220.927, 249.329 223.093, 253.511 225.943 C 260.512 230.714, 260.999 230.902, 259.635 228.313 C 256.733 222.802, 247.747 215.111, 241.745 213.002 C 234.908 210.599, 233.766 210.552, 229.953 212.525 C 227.287 213.903, 226.765 213.892, 224.502 212.410 C 222.056 210.807, 222 210.828, 222 213.340 M 314.975 215.565 C 313.687 218.954, 313.699 219, 315.893 219 C 317.763 219, 319 217.176, 319 214.418 C 319 212.004, 316.005 212.858, 314.975 215.565 M 239 220.658 C 238.175 220.933, 236.858 221.364, 236.072 221.616 C 234.881 221.998, 234.918 222.346, 236.291 223.720 C 237.820 225.248, 238.083 225.235, 239.969 223.528 C 243.089 220.704, 242.661 219.437, 239 220.658 M 327.636 222.750 C 326.708 224.537, 326.394 226, 326.939 226 C 328.249 226, 330.239 222.212, 329.726 220.695 C 329.504 220.038, 328.563 220.963, 327.636 222.750 M 220.218 231.154 C 220.464 231.895, 221.468 232.655, 222.448 232.846 C 223.588 233.066, 224.069 232.706, 223.782 231.846 C 223.536 231.105, 222.532 230.345, 221.552 230.154 C 220.412 229.934, 219.931 230.294, 220.218 231.154 M 249 232.559 C 249 233.416, 249.450 233.840, 250 233.500 C 250.550 233.160, 251 232.459, 251 231.941 C 251 231.423, 250.550 231, 250 231 C 249.450 231, 249 231.702, 249 232.559 M 178.049 257.441 C 176.271 259.584, 177.183 262.452, 179.760 262.820 C 182.357 263.190, 182.783 260.615, 180.600 257.739 C 179.438 256.208, 179.105 256.169, 178.049 257.441 M 177.530 266.952 C 176.238 269.042, 178.057 272, 180.634 272 C 182.770 272, 183.087 271.601, 182.816 269.250 C 182.595 267.322, 181.856 266.408, 180.344 266.193 C 179.159 266.024, 177.892 266.365, 177.530 266.952 M 273 274 C 273 274.550, 273.702 275, 274.559 275 C 275.416 275, 275.840 274.550, 275.500 274 C 275.160 273.450, 274.459 273, 273.941 273 C 273.423 273, 273 273.450, 273 274 M 298.507 273.989 C 298.157 274.555, 298.558 274.723, 299.448 274.382 C 301.180 273.717, 301.497 273, 300.059 273 C 299.541 273, 298.843 273.445, 298.507 273.989 M 178.015 276.481 C 176.993 277.713, 176.960 278.616, 177.863 280.598 C 179.193 283.518, 182.607 283.598, 184.393 280.750 C 186.719 277.039, 180.826 273.095, 178.015 276.481 M 292.489 295.842 C 292.126 296.204, 287.931 296.523, 283.165 296.552 C 273.240 296.611, 252 299.045, 252 300.123 C 252 301.882, 262.204 309.425, 269.569 313.110 C 276.548 316.602, 278.547 317.153, 284.370 317.186 C 293.509 317.239, 298.479 314.152, 305.603 304 C 308.498 299.875, 310.895 296.275, 310.931 296 C 311.029 295.241, 293.245 295.089, 292.489 295.842 M 291 304 C 289.625 304.440, 285.575 304.877, 282 304.971 C 277.377 305.092, 276.077 305.389, 277.500 306 C 282.172 308.008, 294 306.459, 294 303.839 C 294 303.378, 293.887 303.045, 293.750 303.100 C 293.613 303.155, 292.375 303.560, 291 304" stroke="none" fill="black" fill-rule="evenodd"/>
</svg>